<svg width="32" height="32" viewBox="0 0 32 32" fill="none" xmlns="http://www.w3.org/2000/svg">
<g clip-path="url(#clip0_5208_129131)">
<path d="M28.2929 31.2982C25.5859 31.2982 6.85743 31.2982 3.70166 31.2982V28.4797C3.70166 24.983 7.23066 22.1382 10.7274 22.1382H11.4638C11.6265 24.5 13.5939 26.3659 15.9974 26.3659C18.4008 26.3659 20.3681 24.5 20.5309 22.1382C21.1207 22.1447 21.4453 22.1179 21.981 22.1783C25.2206 22.5257 28.293 25.2155 28.293 28.4797" fill="#EF5DA8"/>
<path d="M26.1957 23.1758C26.1957 23.1687 26.2004 10.1161 26.1957 10.0744C25.6326 5.03437 21.3249 1 15.9687 1C10.5662 1 6.13065 5.1433 5.72079 10.4185C5.71749 10.4601 5.71925 12.0086 5.71868 23.2386C3.98485 24.6115 3 26.498 3 28.4797V31.2982C3 31.6858 3.3142 32 3.70181 32H28.2931C28.6807 32 28.9949 31.6858 28.9949 31.2982V28.4797C28.9949 26.4673 27.9791 24.5532 26.1957 23.1758ZM9.30151 12.9795H7.83269C7.44093 12.9795 7.12224 12.662 7.12224 12.2719V10.8626C7.12224 10.4724 7.44093 10.155 7.83269 10.155H9.30151V12.9795ZM7.83269 14.383H9.38397C9.71432 16.483 11.0145 18.2176 12.7392 19.1807L12.266 21.4362C10.911 21.4461 10.5651 21.4099 9.93897 21.4804C8.96843 21.5844 8.012 21.8764 7.12224 22.3337V14.26C7.34443 14.3394 7.58354 14.383 7.83269 14.383ZM10.7051 13.329V9.52373C10.7051 8.93933 11.18 8.46385 11.7636 8.46385H16.6924C17.3815 8.46385 18.0054 8.17913 18.4527 7.72113C18.9001 8.17913 19.524 8.46385 20.213 8.46385C20.7966 8.46385 21.2715 8.93933 21.2715 9.52373V12.5759C21.1182 14.0131 19.9145 15.0935 18.4598 15.0935H15.9883C15.6007 15.0935 15.2865 15.4077 15.2865 15.7953C15.2865 16.183 15.6007 16.4972 15.9883 16.4972H18.4598C19.2174 16.4972 19.9294 16.3009 20.5457 15.9544C19.6357 17.5263 17.9613 18.5952 16.049 18.6166C13.1102 18.651 10.7051 16.2777 10.7051 13.329ZM24.0734 10.155C24.4652 10.155 24.7839 10.4724 24.7839 10.8626V12.2719C24.7839 12.662 24.4652 12.9795 24.0734 12.9795H22.6752C22.6752 12.2704 22.6752 10.8658 22.6752 10.155H24.0734ZM22.5805 14.383H24.0734C24.3231 14.383 24.5688 14.3392 24.7914 14.2595V22.292C23.9248 21.8583 22.9979 21.5814 22.0597 21.4808C21.4305 21.4099 21.0979 21.4461 19.7289 21.4362L19.2501 19.1542C20.9788 18.1682 22.2368 16.4264 22.5805 14.383ZM15.9687 2.40363C20.0552 2.40363 23.4415 5.11901 24.5019 8.79504C24.3635 8.76648 24.2202 8.75139 24.0735 8.75139H22.5506C22.226 7.77032 21.3012 7.06023 20.2131 7.06023C19.6295 7.06023 19.1546 6.58475 19.1546 6.00035V5.2252C19.1546 4.83759 18.8404 4.52338 18.4528 4.52338C18.0652 4.52338 17.751 4.83759 17.751 5.2252V6.00035C17.751 6.58475 17.2761 7.06023 16.6925 7.06023H11.7637C10.6757 7.06023 9.75081 7.77032 9.42615 8.75139H7.83269C7.69731 8.75139 7.56508 8.76465 7.43672 8.78908C8.50832 5.09613 11.9662 2.40363 15.9687 2.40363ZM27.5913 30.5964H4.40363V28.4797C4.40363 25.6721 7.10498 23.1961 10.0925 22.8757C10.6199 22.8162 10.8129 22.8495 12.8358 22.8399C13.1679 22.8399 13.4545 22.6072 13.5227 22.2822L14.0564 19.7387C15.2963 20.1111 16.6585 20.1223 17.9359 19.7256L18.4722 22.2822C18.5405 22.6072 18.8271 22.8399 19.1591 22.8399C21.1944 22.8496 21.3737 22.8161 21.9063 22.8761C24.8423 23.191 27.5913 25.6331 27.5913 28.4797V30.5964Z" fill="#8592AB"/>
<path d="M13.5241 10.1606C13.1365 10.1606 12.8223 10.4748 12.8223 10.8625V11.5671C12.8223 11.9547 13.1365 12.2689 13.5241 12.2689C13.9117 12.2689 14.2259 11.9547 14.2259 11.5671V10.8625C14.2259 10.4748 13.9117 10.1606 13.5241 10.1606Z" fill="#8592AB"/>
<path d="M18.4523 12.2691C18.8399 12.2691 19.1541 11.9549 19.1541 11.5673V10.8627C19.1541 10.4751 18.8399 10.1609 18.4523 10.1609C18.0647 10.1609 17.7505 10.4751 17.7505 10.8627V11.5673C17.7505 11.9549 18.0647 12.2691 18.4523 12.2691Z" fill="#8592AB"/>
</g>
<defs>
<clipPath id="clip0_5208_129131">
<rect width="32" height="32" fill="white"/>
</clipPath>
</defs>
</svg>
