<svg width="40" height="40" viewBox="0 0 40 40" fill="none" xmlns="http://www.w3.org/2000/svg">
<rect width="40" height="40" rx="20" fill="#FF61A3"/>
<path d="M26 28.4C25.9 28.4 25.9001 28.4 25.8 28.4C23.2001 28.1 20.7 27.2001 18.5 25.8C16.5 24.5 14.7 22.8 13.4 20.8C12 18.6 11.1 16.1 10.8 13.5C10.8 13.2 10.8 12.8 10.9 12.5C11.1 12.1 11.2 11.9 11.5 11.6C11.7 11.4 12 11.2 12.3 11C12.6 10.9 12.9 10.8 13.3 10.8H15.6C16.2 10.8 16.7 11 17.2 11.4C17.6 11.8 17.9 12.3 18 12.9C18.1 13.6 18.3 14.3 18.5 15C18.7 15.4 18.7 15.9 18.6 16.3C18.5 16.7 18.3 17.1 18 17.5L17.4 18.1C18.4 19.6 19.6 20.9 21.2 21.9L21.8 21.3C22.1 21 22.5 20.8 23 20.7C23.4 20.6 23.9001 20.6 24.3 20.8C25 21.1 25.7 21.2 26.4 21.3C27 21.4 27.5 21.7 27.9 22.1C28.3 22.5 28.5 23.1 28.5 23.7V26.1C28.5 26.4 28.4 26.8 28.3 27C28.2 27.3 28 27.6 27.7 27.8C27.4 28 27.2 28.2 26.9 28.3C26.5 28.3 26.3 28.4 26 28.4ZM15.6 12.4H13.2C13.1 12.4 13 12.4 12.9 12.5C12.8 12.5 12.7 12.5 12.6 12.6C12.5 12.7 12.4 12.8 12.4 12.9C12.4 13 12.3 13.1 12.4 13.3C12.6 15.6 13.4 17.9 14.7 19.9C15.9 21.7 17.5 23.3 19.3 24.5C21.3 25.8 23.6 26.6 25.9 26.9C26 26.9 26.1 26.9 26.2 26.9C26.3 26.9 26.4 26.8 26.5 26.7C26.6 26.6 26.7 26.5 26.7 26.4C26.7 26.3 26.8 26.2 26.8 26.1V23.6C26.8 23.4 26.7 23.2 26.6 23C26.5 22.8 26.3 22.7 26.1 22.7C25.3 22.6 24.5 22.4 23.7 22.1C23.5 22 23.4 22 23.2 22.1C23 22.1 22.9 22.2 22.8 22.3L21.8 23.3C21.6 23.5 21.2 23.6 20.9 23.4C18.8 22.2 17 20.4 15.8 18.3C15.6 18 15.6 17.7 15.9 17.4L16.9 16.4C17 16.3 17.1 16.1 17.1 16C17.1 15.8 17.1 15.7 17.1 15.5C16.8 14.7 16.6 13.9 16.5 13.1C16.5 12.9 16.4 12.7 16.2 12.6C16 12.4 15.8 12.4 15.6 12.4Z" fill="white"/>
</svg>
