<svg width="32" height="32" viewBox="0 0 32 32" fill="none" xmlns="http://www.w3.org/2000/svg">
<path d="M5.88397 23.0368C5.80836 22.6976 11.947 9.92629 11.947 9.92629L18.0586 15.9999L25 9.99988L18.0586 23.0368L12.5389 17.525L5.88397 23.0368Z" fill="url(#paint0_linear_5208_129107)"/>
<path d="M15.8104 31.6736C12.3198 31.6736 9.00999 30.556 6.23878 28.4415C5.96555 28.2365 5.60868 28.1463 5.26472 28.1971L1.97473 28.6856C1.71888 28.7235 1.46056 28.6302 1.28812 28.4369C1.11575 28.2437 1.05217 27.9767 1.11914 27.7265L2.02924 24.3239C2.11204 24.0144 2.06891 23.6802 1.90777 23.3829C0.659704 21.0808 0 18.4713 0 15.8368C0 7.10437 7.09253 0 15.8104 0C24.5282 0 31.6208 7.10437 31.6208 15.8368C31.6208 24.5693 24.5283 31.6736 15.8104 31.6736ZM5.45146 26.6459C6.06503 26.6459 6.67292 26.8448 7.16664 27.2154C9.67254 29.1273 12.6598 30.136 15.8105 30.136C23.6805 30.136 30.0832 23.7214 30.0832 15.8367C30.0832 7.95212 23.6805 1.53759 15.8104 1.53759C7.94028 1.53759 1.53759 7.9522 1.53759 15.8368C1.53759 18.2162 2.13303 20.5723 3.25947 22.6501C3.60888 23.2946 3.69953 24.0302 3.51455 24.7213L2.90705 26.9928L5.03892 26.6762C5.17592 26.6559 5.31392 26.6459 5.45146 26.6459Z" fill="#8592AB"/>
<defs>
<linearGradient id="paint0_linear_5208_129107" x1="4.84182" y1="20.6288" x2="26.2331" y2="11.3709" gradientUnits="userSpaceOnUse">
<stop stop-color="#2EA1FC"/>
<stop offset="0.286458" stop-color="#7156FD"/>
<stop offset="0.65625" stop-color="#D41DEB"/>
<stop offset="1" stop-color="#FC466F"/>
</linearGradient>
</defs>
</svg>
