<svg width="32" height="32" viewBox="0 0 32 32" fill="none" xmlns="http://www.w3.org/2000/svg">
<path d="M30.5038 0.788992C30.474 0.766662 30.4442 0.744331 30.4145 0.722C30.2954 0.640121 30.1465 0.595459 29.9827 0.595459H10.2423C6.59498 3.17839 4.26514 7.13838 4.26514 11.5748C4.26514 15.4082 6.00694 18.8844 8.82806 21.4301C8.85039 22.5541 8.53776 24.5787 6.15581 25.4719C6.15581 25.4719 9.1258 26.4173 13.3463 24.281C15.438 25.1668 17.7753 25.658 20.2465 25.658C24.2884 25.658 27.9804 24.3331 30.7941 22.1521V1.40681C30.7941 1.16117 30.6824 0.937864 30.5038 0.788992Z" fill="#0180C7"/>
<path d="M30.5113 32H1.48872C0.669923 32 0 31.3301 0 30.5113V1.48872C0 0.669923 0.669923 0 1.48872 0H30.5113C31.3301 0 32 0.669923 32 1.48872V30.5113C32 31.3301 31.3301 32 30.5113 32ZM1.48872 1.19097C1.32496 1.19097 1.19097 1.32496 1.19097 1.48872V30.5113C1.19097 30.675 1.32496 30.809 1.48872 30.809H30.5113C30.675 30.809 30.809 30.675 30.809 30.5113V1.48872C30.809 1.32496 30.675 1.19097 30.5113 1.19097H1.48872Z" fill="#0180C7"/>
<path d="M10.1976 15.0438C11.2174 15.0438 12.1701 15.0363 13.1229 15.0438C13.6589 15.0512 13.9492 15.2745 13.9938 15.6988C14.0534 16.2347 13.7482 16.5846 13.1676 16.592C12.0808 16.6069 10.9866 16.5995 9.89984 16.5995C9.5872 16.5995 9.26713 16.6069 8.9545 16.592C8.55999 16.5697 8.18037 16.4953 7.99428 16.0859C7.80819 15.6839 7.93473 15.3192 8.19525 14.9916C9.23736 13.6667 10.2795 12.3417 11.3216 11.0168C11.3811 10.9349 11.4407 10.8605 11.5002 10.7786C11.4332 10.6669 11.3364 10.7116 11.2546 10.7116C10.5251 10.7041 9.79563 10.7116 9.06615 10.7041C8.90239 10.7041 8.72375 10.6893 8.56743 10.6446C8.22503 10.5553 8.02405 10.2873 8.01661 9.95978C8.01661 9.63226 8.21014 9.36429 8.55255 9.26752C8.70886 9.22286 8.88751 9.20798 9.05127 9.20798C10.2497 9.20053 11.4555 9.20053 12.6614 9.20798C12.8773 9.20798 13.0857 9.21542 13.2941 9.28241C13.7482 9.43873 13.9492 9.86301 13.7631 10.3022C13.5993 10.6892 13.3462 11.0168 13.0857 11.3443C12.2073 12.4683 11.3216 13.5848 10.4358 14.7088C10.3762 14.8056 10.3092 14.8949 10.1976 15.0438Z" fill="#FCFCFC"/>
<path d="M18.0207 11.493C18.1845 11.2846 18.3482 11.0911 18.6236 11.0315C19.1521 10.9199 19.6583 11.2697 19.6657 11.8057C19.6806 13.1529 19.6732 14.5002 19.6657 15.8475C19.6657 16.2123 19.435 16.4951 19.1075 16.6142C18.7576 16.7333 18.4003 16.644 18.1621 16.3537C18.0505 16.2123 17.9984 16.1825 17.8421 16.3165C17.2317 16.8152 16.532 16.9045 15.7876 16.6589C14.5892 16.2718 14.0905 15.3339 13.964 14.1876C13.8225 12.9594 14.2319 11.9024 15.3336 11.2548C16.2491 10.7114 17.1796 10.7561 18.0207 11.493ZM15.6388 13.9569C15.6462 14.1876 15.7206 14.5002 15.9216 14.7682C16.3608 15.3562 17.254 15.3562 17.6857 14.7682C18.0654 14.262 18.0654 13.4135 17.6857 12.9073C17.4848 12.6393 17.2168 12.4979 16.8893 12.4756C16.1449 12.4309 15.6313 13.0041 15.6388 13.9569Z" fill="#FCFCFC"/>
<path d="M22.6956 13.9941C22.6435 12.2598 23.7823 10.972 25.3976 10.9199C27.1171 10.8678 28.375 12.0216 28.4271 13.7038C28.4792 15.4084 27.4371 16.6143 25.8219 16.778C24.0652 16.9567 22.6658 15.6764 22.6956 13.9941ZM24.3927 13.8304C24.3927 14.1728 24.4746 14.5003 24.683 14.7757C25.1073 15.3488 25.9931 15.3563 26.4322 14.7906C26.8268 14.2844 26.8268 13.4135 26.4397 12.8999C26.2387 12.6319 25.9707 12.4905 25.6358 12.4756C24.8989 12.4384 24.3927 12.9967 24.3927 13.8304Z" fill="#FCFCFC"/>
<path d="M22.0999 12.6543C22.0999 13.6964 22.1073 14.7459 22.0999 15.788C22.0924 16.3835 21.5714 16.7929 20.9982 16.6441C20.6558 16.5547 20.4027 16.1974 20.4027 15.7732C20.4027 13.9867 20.4027 12.2002 20.4027 10.4138C20.4027 10.1011 20.3953 9.78107 20.4027 9.46844C20.4102 8.94739 20.7451 8.61242 21.2364 8.61242C21.75 8.60498 22.0924 8.94739 22.0924 9.48332C22.1073 10.5403 22.0999 11.5973 22.0999 12.6543Z" fill="#FCFCFC"/>
</svg>
