<svg width="24" height="24" viewBox="0 0 24 24" fill="none" xmlns="http://www.w3.org/2000/svg">
<path d="M12.0004 14.1C13.1602 14.1 14.1004 13.1598 14.1004 12C14.1004 10.8402 13.1602 9.89999 12.0004 9.89999C10.8406 9.89999 9.90039 10.8402 9.90039 12C9.90039 13.1598 10.8406 14.1 12.0004 14.1Z" fill="white" fill-opacity="0.8"/>
<path d="M12 2C6.47716 2 2 6.47716 2 12C2 17.5228 6.47716 22 12 22C17.5228 22 22 17.5228 22 12C22 6.47716 17.5228 2 12 2ZM18.1783 14.5416C18.1303 15.4923 17.8632 16.4298 17.1703 17.1153C16.4708 17.8073 15.5288 18.0652 14.5689 18.1127H9.43112C8.47112 18.0652 7.52928 17.8075 6.82972 17.1153C6.13684 16.4298 5.86972 15.4923 5.82172 14.5416V9.4584C5.86972 8.50768 6.13688 7.57016 6.82972 6.88464C7.52928 6.19264 8.47124 5.9348 9.43112 5.88732H14.5689C15.5289 5.9348 16.4707 6.19252 17.1703 6.88464C17.8632 7.57016 18.1303 8.50768 18.1783 9.4584L18.1783 14.5416Z" fill="white" fill-opacity="0.8"/>
<path d="M14.5048 7.04555C13.2533 7.01123 10.7485 7.01123 9.49708 7.04555C8.84584 7.06343 8.10757 7.22555 7.64357 7.72115C7.16141 8.23631 6.9792 8.85871 6.96072 9.55499C6.92824 10.7771 6.96072 14.4451 6.96072 14.4451C6.98188 15.1413 7.16141 15.7637 7.64357 16.2789C8.10757 16.7747 8.84584 16.9366 9.49708 16.9545C10.7485 16.9888 13.2533 16.9888 14.5048 16.9545C15.156 16.9366 15.8943 16.7745 16.3583 16.2789C16.8404 15.7637 17.0226 15.1413 17.0411 14.4451V9.55499C17.0226 8.85871 16.8404 8.23631 16.3583 7.72115C15.8941 7.22539 15.1558 7.06343 14.5048 7.04555ZM12.0008 15.255C11.357 15.255 10.7277 15.0641 10.1924 14.7065C9.6571 14.3488 9.2399 13.8404 8.99354 13.2457C8.74717 12.6509 8.68271 11.9964 8.80831 11.365C8.9339 10.7336 9.24391 10.1536 9.69913 9.69839C10.1544 9.24317 10.7343 8.93316 11.3657 8.80757C11.9972 8.68198 12.6516 8.74643 13.2464 8.9928C13.8412 9.23916 14.3495 9.65636 14.7072 10.1916C15.0649 10.7269 15.2558 11.3562 15.2558 12C15.2558 12.8633 14.9128 13.6912 14.3024 14.3017C13.692 14.9121 12.864 15.255 12.0008 15.255ZM15.2696 9.41691C15.1409 9.41687 15.015 9.37867 14.908 9.30712C14.8009 9.23556 14.7175 9.13388 14.6683 9.01492C14.619 8.89596 14.6062 8.76508 14.6313 8.6388C14.6564 8.51253 14.7184 8.39655 14.8095 8.30552C14.9005 8.21449 15.0165 8.15251 15.1428 8.1274C15.2691 8.1023 15.4 8.1152 15.5189 8.16448C15.6379 8.21375 15.7395 8.29719 15.8111 8.40425C15.8826 8.5113 15.9208 8.63716 15.9208 8.76591C15.9208 8.85141 15.9039 8.93608 15.8712 9.01507C15.8385 9.09406 15.7905 9.16584 15.73 9.22629C15.6696 9.28674 15.5978 9.33469 15.5188 9.3674C15.4398 9.4001 15.3551 9.41693 15.2696 9.41691Z" fill="white" fill-opacity="0.8"/>
</svg>
