<svg width="24" height="24" viewBox="0 0 24 24" fill="none" xmlns="http://www.w3.org/2000/svg">
<g clip-path="url(#clip0_10829_1023)">
<path d="M20.1587 3.44382C20.1419 3.43126 20.1252 3.4187 20.1084 3.40614C20.0414 3.36008 19.9577 3.33496 19.8656 3.33496H8.76159C6.70995 4.78786 5.39941 7.01535 5.39941 9.51082C5.39941 11.6671 6.37918 13.6225 7.96606 15.0544C7.97862 15.6867 7.80276 16.8255 6.46292 17.328C6.46292 17.328 8.13354 17.8597 10.5076 16.6581C11.6841 17.1563 12.9989 17.4327 14.3889 17.4327C16.6625 17.4327 18.7393 16.6874 20.322 15.4606V3.79135C20.322 3.65317 20.2591 3.52756 20.1587 3.44382Z" fill="white" fill-opacity="0.8"/>
<path d="M20.1626 21H3.8374C3.37683 21 3 20.6232 3 20.1626V3.8374C3 3.37683 3.37683 3 3.8374 3H20.1626C20.6232 3 21 3.37683 21 3.8374V20.1626C21 20.6232 20.6232 21 20.1626 21ZM3.8374 3.66992C3.74529 3.66992 3.66992 3.74529 3.66992 3.8374V20.1626C3.66992 20.2547 3.74529 20.3301 3.8374 20.3301H20.1626C20.2547 20.3301 20.3301 20.2547 20.3301 20.1626V3.8374C20.3301 3.74529 20.2547 3.66992 20.1626 3.66992H3.8374Z" fill="white" fill-opacity="0.8"/>
<path d="M8.73641 11.4621C9.31004 11.4621 9.84597 11.4579 10.3819 11.4621C10.6834 11.4663 10.8467 11.5919 10.8718 11.8305C10.9053 12.132 10.7336 12.3288 10.407 12.333C9.79573 12.3413 9.18024 12.3372 8.56893 12.3372C8.39308 12.3372 8.21304 12.3413 8.03718 12.333C7.81527 12.3204 7.60173 12.2785 7.49705 12.0482C7.39238 11.8221 7.46356 11.617 7.6101 11.4328C8.19629 10.6875 8.78247 9.94218 9.36865 9.19689C9.40215 9.15083 9.43565 9.10896 9.46914 9.0629C9.43146 9.0001 9.37703 9.02522 9.33097 9.02522C8.92064 9.02103 8.51031 9.02522 8.09999 9.02103C8.00787 9.02103 7.90738 9.01266 7.81946 8.98754C7.62685 8.93729 7.5138 8.78656 7.50962 8.60233C7.50962 8.4181 7.61848 8.26737 7.81108 8.21294C7.89901 8.18781 7.9995 8.17944 8.09161 8.17944C8.76572 8.17525 9.44402 8.17525 10.1223 8.17944C10.2437 8.17944 10.361 8.18363 10.4782 8.22131C10.7336 8.30924 10.8467 8.5479 10.742 8.79493C10.6499 9.01266 10.5075 9.19689 10.361 9.38112C9.86691 10.0134 9.36865 10.6414 8.8704 11.2736C8.8369 11.3281 8.79922 11.3783 8.73641 11.4621Z" fill="#333333"/>
<path d="M13.1369 9.46487C13.229 9.34764 13.3212 9.23877 13.4761 9.20528C13.7734 9.14247 14.0581 9.33926 14.0623 9.64073C14.0706 10.3986 14.0664 11.1564 14.0623 11.9143C14.0623 12.1194 13.9325 12.2785 13.7482 12.3455C13.5514 12.4125 13.3505 12.3623 13.2165 12.199C13.1537 12.1194 13.1244 12.1027 13.0364 12.1781C12.6931 12.4586 12.2995 12.5088 11.8808 12.3707C11.2067 12.1529 10.9262 11.6254 10.855 10.9806C10.7754 10.2897 11.0057 9.69516 11.6254 9.33089C12.1404 9.02524 12.6638 9.05036 13.1369 9.46487ZM11.7971 10.8508C11.8013 10.9806 11.8431 11.1564 11.9562 11.3072C12.2032 11.6379 12.7057 11.6379 12.9485 11.3072C13.162 11.0224 13.162 10.5451 12.9485 10.2604C12.8355 10.1097 12.6847 10.0301 12.5005 10.0176C12.0818 9.99244 11.7929 10.3148 11.7971 10.8508Z" fill="#333333"/>
<path d="M15.7666 10.8717C15.7373 9.8961 16.3779 9.17174 17.2865 9.14243C18.2537 9.11312 18.9613 9.76211 18.9906 10.7084C19.0199 11.6672 18.4337 12.3455 17.5251 12.4376C16.537 12.5381 15.7498 11.8179 15.7666 10.8717ZM16.7212 10.7796C16.7212 10.9722 16.7673 11.1564 16.8845 11.3113C17.1232 11.6337 17.6214 11.6379 17.8685 11.3197C18.0904 11.035 18.0904 10.5451 17.8727 10.2562C17.7596 10.1054 17.6089 10.0259 17.4205 10.0175C17.0059 9.99659 16.7212 10.3106 16.7212 10.7796Z" fill="#333333"/>
<path d="M15.4311 10.118C15.4311 10.7042 15.4353 11.2946 15.4311 11.8808C15.4269 12.2157 15.1338 12.446 14.8114 12.3623C14.6188 12.312 14.4765 12.1111 14.4765 11.8724C14.4765 10.8675 14.4765 9.86263 14.4765 8.85775C14.4765 8.68189 14.4723 8.50185 14.4765 8.326C14.4807 8.0329 14.6691 7.84449 14.9454 7.84449C15.2343 7.8403 15.4269 8.0329 15.4269 8.33437C15.4353 8.92893 15.4311 9.52348 15.4311 10.118Z" fill="#333333"/>
</g>
<defs>
<clipPath id="clip0_10829_1023">
<rect width="18" height="18" fill="white" transform="translate(3 3)"/>
</clipPath>
</defs>
</svg>
