<svg width="24" height="24" viewBox="0 0 24 24" fill="none" xmlns="http://www.w3.org/2000/svg">
<path d="M20.9907 6.88542C19.8195 6.88542 18.739 6.49744 17.8713 5.84294C16.8761 5.09265 16.1611 3.99206 15.9086 2.72354C15.8461 2.41012 15.8124 2.08668 15.8092 1.75522H12.4637V10.8966L12.4597 15.9037C12.4597 17.2424 11.588 18.3775 10.3796 18.7766C10.0289 18.8925 9.65014 18.9474 9.25575 18.9257C8.75235 18.8981 8.28061 18.7462 7.8706 18.5009C6.99806 17.9791 6.40649 17.0324 6.39046 15.9494C6.36521 14.2569 7.73353 12.8769 9.42489 12.8769C9.75875 12.8769 10.0794 12.9314 10.3796 13.0304V10.5319V9.63368C10.063 9.58679 9.74072 9.56234 9.41487 9.56234C7.56359 9.56234 5.83215 10.3319 4.59449 11.7182C3.65903 12.7659 3.09791 14.1026 3.01134 15.5041C2.89791 17.3454 3.57165 19.0957 4.87825 20.3871C5.07023 20.5766 5.27183 20.7526 5.48265 20.9149C6.60288 21.777 7.9724 22.2443 9.41487 22.2443C9.74072 22.2443 10.063 22.2203 10.3796 22.1734C11.7271 21.9738 12.9703 21.357 13.9515 20.3871C15.1571 19.1955 15.8232 17.6135 15.8304 15.9298L15.8132 8.45253C16.3883 8.89621 17.0172 9.26334 17.6921 9.54831C18.7418 9.99119 19.8548 10.2156 21.0003 10.2152V7.78601V6.88461C21.0011 6.88542 20.9915 6.88542 20.9907 6.88542Z" fill="white" fill-opacity="0.8"/>
</svg>
