<svg width="24" height="24" viewBox="0 0 24 24" fill="none" xmlns="http://www.w3.org/2000/svg">
<path fill-rule="evenodd" clip-rule="evenodd" d="M12 1.5C8.36005 1.5 4.5 4.26121 4.5 9C4.5 10.2643 4.96315 11.715 5.69859 13.2088C6.43044 14.6954 7.41152 16.1842 8.40112 17.514C9.38955 18.8422 10.3792 20.002 11.1222 20.8302C11.4831 21.2325 11.7853 21.5558 12 21.7814C12.2147 21.5558 12.5169 21.2325 12.8778 20.8302C13.6208 20.002 14.6105 18.8422 15.5989 17.514C16.5885 16.1842 17.5696 14.6954 18.3014 13.2088C19.0369 11.715 19.5 10.2643 19.5 9C19.5 4.26121 15.64 1.5 12 1.5ZM12 22.5C11.6464 22.8536 11.6464 22.8535 11.6462 22.8533L11.6458 22.8529L11.6445 22.8516L11.6397 22.8468L11.6216 22.8285C11.6058 22.8125 11.5826 22.789 11.5526 22.7583C11.4926 22.697 11.4052 22.6068 11.2943 22.4905C11.0725 22.2578 10.7566 21.9201 10.3778 21.498C9.62084 20.6542 8.61045 19.4703 7.59888 18.111C6.58848 16.7533 5.56956 15.2108 4.80141 13.6505C4.03685 12.0975 3.5 10.4857 3.5 9C3.5 3.61379 7.90795 0.5 12 0.5C16.092 0.5 20.5 3.61379 20.5 9C20.5 10.4857 19.9631 12.0975 19.1986 13.6505C18.4304 15.2108 17.4115 16.7533 16.4011 18.111C15.3895 19.4703 14.3792 20.6542 13.6222 21.498C13.2434 21.9201 12.9275 22.2578 12.7057 22.4905C12.5948 22.6068 12.5074 22.697 12.4474 22.7583C12.4174 22.789 12.3942 22.8125 12.3784 22.8285L12.3603 22.8468L12.3555 22.8516L12.3542 22.8529L12.3538 22.8533C12.3536 22.8535 12.3536 22.8536 12 22.5ZM12 22.5L12.3536 22.8536C12.1583 23.0488 11.8417 23.0488 11.6464 22.8536L12 22.5Z" fill="white"/>
<path fill-rule="evenodd" clip-rule="evenodd" d="M12 7C10.8954 7 10 7.89543 10 9C10 10.1046 10.8954 11 12 11C13.1046 11 14 10.1046 14 9C14 7.89543 13.1046 7 12 7ZM9 9C9 7.34315 10.3431 6 12 6C13.6569 6 15 7.34315 15 9C15 10.6569 13.6569 12 12 12C10.3431 12 9 10.6569 9 9Z" fill="white"/>
</svg>
