<svg width="24" height="24" viewBox="0 0 24 24" fill="none" xmlns="http://www.w3.org/2000/svg">
<path d="M6.64762 13.9652C8.42973 16.0874 10.575 17.7584 13.0235 18.9407C13.9558 19.3809 15.2025 19.903 16.5915 19.9925C16.6776 19.9963 16.76 20 16.8461 20C17.7783 20 18.5271 19.6792 19.1374 19.0191C19.1411 19.0153 19.1486 19.0079 19.1524 19.0004C19.3695 18.7393 19.6166 18.5044 19.8749 18.2545C20.0509 18.0866 20.2306 17.9113 20.4028 17.7323C21.2003 16.9043 21.2003 15.8525 20.3954 15.0506L18.1452 12.809C17.7634 12.4136 17.3066 12.2047 16.8274 12.2047C16.3482 12.2047 15.8877 12.4136 15.4945 12.8052L14.1542 14.1405C14.0307 14.0696 13.9034 14.0062 13.7836 13.9465C13.6338 13.8719 13.4953 13.8011 13.3717 13.7228C12.1512 12.9507 11.043 11.9436 9.98347 10.6494C9.44808 9.97431 9.08867 9.40738 8.83782 8.82926C9.18975 8.51223 9.51922 8.18027 9.83745 7.85578C9.94977 7.74016 10.0658 7.62453 10.1819 7.50891C10.5862 7.10609 10.8034 6.63987 10.8034 6.16618C10.8034 5.6925 10.59 5.22627 10.1819 4.82346L9.0662 3.71198C8.93516 3.58143 8.81161 3.45462 8.68432 3.32408C8.43722 3.07045 8.17889 2.80937 7.9243 2.57439C7.53868 2.19768 7.08566 2 6.60644 2C6.13096 2 5.6742 2.19768 5.27359 2.57812L3.87336 3.97306C3.36419 4.48031 3.0759 5.09573 3.016 5.80812C2.94487 6.69954 3.1096 7.64691 3.53641 8.79196C4.1916 10.5636 5.18 12.2085 6.64762 13.9652ZM3.92952 5.88645C3.97445 5.39039 4.16539 4.97638 4.52481 4.61832L5.91755 3.23083C6.1347 3.02196 6.37431 2.9138 6.60644 2.9138C6.83482 2.9138 7.06694 3.02196 7.28034 3.23829C7.53119 3.46954 7.76706 3.71198 8.02164 3.96933C8.14894 4.09988 8.27997 4.23042 8.41101 4.36469L9.52671 5.47617C9.75883 5.70742 9.87864 5.9424 9.87864 6.17364C9.87864 6.40489 9.75883 6.63987 9.52671 6.87111C9.41064 6.98674 9.29458 7.10609 9.17852 7.22172C8.83033 7.57232 8.50461 7.90427 8.14519 8.2213C8.13771 8.22876 8.13396 8.23249 8.12647 8.23995C7.81573 8.54952 7.8644 8.84418 7.93928 9.06797C7.94302 9.07915 7.94676 9.08661 7.95051 9.0978C8.23879 9.78782 8.63939 10.4443 9.26463 11.2275C10.3878 12.6075 11.5709 13.678 12.8738 14.5023C13.0348 14.6067 13.207 14.6888 13.368 14.7708C13.5177 14.8454 13.6563 14.9163 13.7798 14.9946C13.7948 15.0021 13.806 15.0095 13.821 15.017C13.9445 15.0804 14.0644 15.1102 14.1842 15.1102C14.4837 15.1102 14.6784 14.92 14.742 14.8566L16.1422 13.4617C16.3594 13.2453 16.5953 13.1297 16.8274 13.1297C17.1119 13.1297 17.344 13.305 17.4901 13.4617L19.7477 15.707C20.1969 16.1546 20.1932 16.6395 19.7364 17.1131C19.5792 17.281 19.4144 17.4414 19.2385 17.6092C18.9764 17.8628 18.7031 18.1239 18.456 18.4186C18.0254 18.8811 17.5125 19.0974 16.8498 19.0974C16.7862 19.0974 16.7188 19.0937 16.6552 19.0899C15.4271 19.0116 14.2852 18.5342 13.4279 18.1276C11.0992 17.005 9.05497 15.4123 7.35897 13.3908C5.96248 11.7161 5.02275 10.1571 4.40126 8.48612C4.01563 7.46042 3.86962 6.63614 3.92952 5.88645Z" fill="white"/>
</svg>
